<svg xmlns="http://www.w3.org/2000/svg" viewBox="0 0 512 512" role="img" aria-label="story_gen brand mark">
  <defs>
    <radialGradient id="sg-bg" cx="34%" cy="28%" r="78%">
      <stop offset="0%" stop-color="#38584B"/>
      <stop offset="62%" stop-color="#2E473D"/>
      <stop offset="100%" stop-color="#1F1B17"/>
    </radialGradient>
    <linearGradient id="sg-page" x1="0" y1="0" x2="0" y2="1">
      <stop offset="0%" stop-color="#F7F2E6"/>
      <stop offset="100%" stop-color="#EADCC2"/>
    </linearGradient>
    <linearGradient id="sg-magic" x1="0" y1="0" x2="1" y2="1">
      <stop offset="0%" stop-color="#A45B2A"/>
      <stop offset="100%" stop-color="#E3B27B"/>
    </linearGradient>
  </defs>
  <rect width="512" height="512" rx="108" fill="url(#sg-bg)"/>
  <circle cx="256" cy="228" r="160" fill="none" stroke="#CCB99A" stroke-width="22" stroke-opacity="0.42"/>
  <circle cx="256" cy="228" r="128" fill="none" stroke="#CCB99A" stroke-width="10" stroke-opacity="0.20"/>
  <rect x="94" y="278" width="324" height="154" rx="34" fill="#CCB99A"/>
  <rect x="104" y="288" width="152" height="134" rx="28" fill="url(#sg-page)"/>
  <rect x="256" y="288" width="152" height="134" rx="28" fill="url(#sg-page)"/>
  <rect x="252" y="292" width="8" height="126" rx="4" fill="#7A6348" fill-opacity="0.9"/>
  <rect x="130" y="320" width="96" height="10" rx="5" fill="#D8C9AD"/>
  <rect x="286" y="320" width="96" height="10" rx="5" fill="#D8C9AD"/>
  <rect x="130" y="344" width="84" height="8" rx="4" fill="#DFD1B8"/>
  <rect x="298" y="344" width="84" height="8" rx="4" fill="#DFD1B8"/>
  <path d="M185 258C205 221 237 199 256 199C275 199 307 221 327 258" fill="none" stroke="#4E7B69" stroke-width="28" stroke-linecap="round"/>
  <path d="M185 258C205 221 237 199 256 199C275 199 307 221 327 258" fill="none" stroke="#91C7AE" stroke-width="14" stroke-linecap="round"/>
  <path d="M238 269C246 252 251 237 256 208C261 237 266 252 274 269" fill="none" stroke="url(#sg-magic)" stroke-width="11" stroke-linecap="round"/>
  <path d="M256 90l10 30h30l-24 18 9 30-25-17-25 17 9-30-24-18h30z" fill="#F7F2E6"/>
  <path d="M256 102l6 18h18l-14 10 5 18-15-10-15 10 5-18-14-10h18z" fill="#A45B2A"/>
  <path d="M319 116l6 18h18l-14 10 5 18-15-10-15 10 5-18-14-10h18z" fill="#F7F2E6" fill-opacity="0.85"/>
  <path d="M193 132l5 14h14l-11 8 4 14-12-8-12 8 4-14-11-8h14z" fill="#F7F2E6" fill-opacity="0.75"/>
  <circle cx="180" cy="214" r="7" fill="#F7F2E6" fill-opacity="0.70"/>
  <circle cx="332" cy="214" r="6" fill="#F7F2E6" fill-opacity="0.65"/>
</svg>
